<?xml version="1.0" standalone="no"?><!DOCTYPE svg PUBLIC "-//W3C//DTD SVG 1.1//EN" "http://www.w3.org/Graphics/SVG/1.1/DTD/svg11.dtd"><svg t="1623727632989" class="icon" viewBox="0 0 1024 1024" version="1.1" xmlns="http://www.w3.org/2000/svg" p-id="2578" xmlns:xlink="http://www.w3.org/1999/xlink" width="200" height="200"><defs><style type="text/css"></style></defs><path d="M397.27616 315.78112c58.41408 0 105.38496-69.95968 105.38496-156.51328 0-86.30272-46.97088-156.26752-105.4464-156.26752-58.21952 0-105.4464 69.90336-105.4464 156.32896 0 86.49728 47.22688 156.45696 105.4464 156.45696h0.06144z m250.96192 10.3168c77.9776 10.53184 127.92832-76.0832 137.99936-141.81888 10.1888-65.64864-40.13056-141.88544-95.31904-154.90048-55.22944-13.20448-124.20096 79.06304-130.47808 139.20768-7.58272 73.53856 10.07104 147.072 87.79776 157.51168z m-446.78144 210.14528c105.4464-23.61856 91.2128-155.15648 87.92064-183.89504-5.18656-44.33408-55.11168-121.72288-122.93632-115.57376-85.4016 7.89504-97.85856 136.576-97.85856 136.576-11.648 59.4944 27.52512 186.624 132.87424 162.8928zM839.06048 310.3744c-92.83072 0-105.39008 89.2928-105.39008 152.4224 0 60.33408 4.84864 144.40448 120.4224 141.6704 115.56864-2.6112 102.90176-136.448 102.90176-168.04864-0.00512-31.4368-24.9856-126.04416-117.93408-126.04416zM313.42592 765.08672c-3.01056 9.12896-9.94304 32.74752-4.00896 53.43744 11.86816 46.16704 50.26816 48.1536 50.26816 48.1536h55.26528v-140.8H355.80416c-26.56256 8.20736-39.45472 29.89056-42.37312 39.14752v0.06144z m525.63456-52.74624s-120.4224-97.18784-190.8224-202.38336c-95.38048-154.90048-230.82496-91.89376-276.12672-13.14304-45.0816 78.88896-115.41504 128.71168-125.51168 141.94688-10.00448 12.92288-145.48992 89.23136-115.41504 228.53632 30.10048 139.18208 135.66976 136.448 135.66976 136.448s77.89056 8.07424 168.20224-13.04576a340.87936 340.87936 0 0 1 167.94624 5.2224c54.74816 15.77472 211.08224 73.68704 268.73856-68.22912s-32.68096-215.35232-32.68096-215.35232zM478.0544 923.46368H341.14048c-59.3408-12.29824-82.94912-54.54848-85.77536-61.76256-2.98496-7.21408-19.82464-41.13408-10.93632-98.79552 25.6-86.36416 98.64192-92.6464 98.64192-92.6464h72.91392v-93.52192l62.07488 0.9984v345.728z m255.616-1.11616h-157.88032c-61.13792-16.40448-64.06144-61.6448-64.06144-61.6448v-182.11328l64.06144-1.0496v163.6608c3.92192 17.38752 24.54016 20.5056 24.54016 20.5056h65.1776v-183.1168h68.16256v243.75808z m0 0" p-id="2579"></path></svg>