<?xml version="1.0" standalone="no"?><!DOCTYPE svg PUBLIC "-//W3C//DTD SVG 1.1//EN" "http://www.w3.org/Graphics/SVG/1.1/DTD/svg11.dtd"><svg t="1623914297225" class="icon" viewBox="0 0 1024 1024" version="1.1" xmlns="http://www.w3.org/2000/svg" p-id="9057" xmlns:xlink="http://www.w3.org/1999/xlink" width="200" height="200"><defs><style type="text/css"></style></defs><path d="M512 512m-512 0a512 512 0 1 0 1024 0 512 512 0 1 0-1024 0Z" fill="#FFFFFF" p-id="9058"></path><path d="M269.35296 509.51168c0-26.65472 4.42368-52.224 12.24704-76.1856L144.24064 327.68c-27.5968 56.40704-41.9328 118.68672-41.84064 181.83168 0 65.34144 15.03744 126.976 41.77408 181.68832l137.28768-105.81504a244.36224 244.36224 0 0 1-12.1088-75.8784" fill="#FBBC05" p-id="9059"></path><path d="M523.4176 269.58336c58.83392 0 111.99488 20.40832 153.76896 53.84704L798.72 204.55424C724.67456 141.4144 629.73952 102.4 523.4176 102.4 358.33344 102.4 216.43776 194.87232 148.48 330.01472L289.1264 435.2c32.37376-96.33792 124.6976-165.61664 234.2912-165.61664" fill="#EA4335" p-id="9060"></path><path d="M525.2352 754.41664c-110.16192 0-202.9312-69.2736-235.49952-165.61664L148.48 693.98528C216.7296 829.1328 359.31648 921.6 525.2352 921.6c102.35392 0 200.0896-35.42016 273.4848-101.84192l-134.1184-101.07904c-37.81632 23.23456-85.46304 35.7376-139.40224 35.7376" fill="#34A853" p-id="9061"></path><path d="M921.6 509.056c0-23.99232-3.83488-49.85856-9.51808-73.856H522.24v156.95872h224.37888c-11.1872 53.53472-41.728 94.6688-85.41184 121.43616l133.632 100.48512c76.8-69.3248 126.76096-172.57472 126.76096-305.024" fill="#4285F4" p-id="9062"></path></svg>