<?xml version="1.0" standalone="no"?><!DOCTYPE svg PUBLIC "-//W3C//DTD SVG 1.1//EN" "http://www.w3.org/Graphics/SVG/1.1/DTD/svg11.dtd"><svg t="1623914095573" class="icon" viewBox="0 0 1024 1024" version="1.1" xmlns="http://www.w3.org/2000/svg" p-id="1861" xmlns:xlink="http://www.w3.org/1999/xlink" width="200" height="200"><defs><style type="text/css"></style></defs><path d="M749.93 518.024c-18.071 0-33.13 15.058-33.13 30.117 0 18.07 15.059 33.13 33.13 33.13 18.07 0 33.129-15.06 33.129-33.13 0-15.059-15.059-30.117-33.13-30.117z m-165.648 0c-18.07 0-33.13 15.058-33.13 30.117 0 18.07 15.06 33.13 33.13 33.13s33.13-15.06 33.13-33.13c0-15.059-15.06-30.117-33.13-30.117z" fill="#3ABF11" p-id="1862"></path><path d="M813.176 0H210.824C93.364 0 0 93.365 0 210.824v602.352C0 930.636 93.365 1024 210.824 1024h602.352C930.636 1024 1024 930.635 1024 813.176V210.824C1024 93.364 930.635 0 813.176 0zM400.565 671.624c-30.118 0-60.236-3.012-87.341-12.048H307.2l-102.4 51.2 27.106-84.329s-3.012 0-3.012-3.012c-66.259-42.164-108.423-108.423-108.423-183.717 0-126.494 126.494-228.894 280.094-228.894 138.54 0 256 84.329 277.082 195.764H665.6c-141.553 0-256 93.365-256 210.824 0 18.07 3.012 36.14 9.035 54.212h-18.07z m409.6 99.388s-3.012 3.012 0 0l21.082 72.282-84.33-42.165h-3.011c-24.094 6.024-48.188 9.036-75.294 9.036-129.506 0-237.93-87.341-237.93-195.765s105.412-195.765 237.93-195.765S903.529 505.976 903.529 614.4c0 66.259-36.14 120.47-93.364 156.612z" fill="#3ABF11" p-id="1863"></path><path d="M304.188 325.27c-21.082 0-39.153 18.071-39.153 36.142 0 21.082 18.07 36.14 39.153 36.14s39.153-18.07 39.153-36.14c0-21.083-18.07-36.141-39.153-36.141z m192.753 72.283c21.083 0 39.153-18.07 39.153-36.141 0-21.083-18.07-36.141-39.153-36.141-21.082 0-39.153 18.07-39.153 36.14 0 21.083 18.07 36.142 39.153 36.142z" fill="#3ABF11" p-id="1864"></path></svg>